<?xml version="1.0" encoding="UTF-8" standalone="no"?>
<!-- Created with Inkscape (http://www.inkscape.org/) -->

<svg
   xmlns:dc="http://purl.org/dc/elements/1.1/"
   xmlns:cc="http://creativecommons.org/ns#"
   xmlns:rdf="http://www.w3.org/1999/02/22-rdf-syntax-ns#"
   xmlns:svg="http://www.w3.org/2000/svg"
   xmlns="http://www.w3.org/2000/svg"
   xmlns:sodipodi="http://sodipodi.sourceforge.net/DTD/sodipodi-0.dtd"
   xmlns:inkscape="http://www.inkscape.org/namespaces/inkscape"
   width="114.16892mm"
   height="32.159294mm"
   viewBox="0 0 404.53555 113.95025"
   id="svg3481"
   version="1.1"
   inkscape:version="0.91 r13725"
   sodipodi:docname="expertime-groupe-logo.svg">
  <defs
     id="defs3483">
    <clipPath
       clipPathUnits="userSpaceOnUse"
       id="clipPath58">
      <path
         d="m 0,841.89 595.28,0 L 595.28,0 0,0 0,841.89 Z"
         id="path60"
         inkscape:connector-curvature="0" />
    </clipPath>
  </defs>
  <sodipodi:namedview
     id="base"
     pagecolor="#ffffff"
     bordercolor="#666666"
     borderopacity="1.0"
     inkscape:pageopacity="0.0"
     inkscape:pageshadow="2"
     inkscape:zoom="0.35"
     inkscape:cx="58.696345"
     inkscape:cy="-323.02487"
     inkscape:document-units="px"
     inkscape:current-layer="layer1"
     showgrid="false"
     fit-margin-top="0"
     fit-margin-left="0"
     fit-margin-right="0"
     fit-margin-bottom="0"
     inkscape:window-width="1920"
     inkscape:window-height="1017"
     inkscape:window-x="1912"
     inkscape:window-y="-8"
     inkscape:window-maximized="1" />
  <metadata
     id="metadata3486">
    <rdf:RDF>
      <cc:Work
         rdf:about="">
        <dc:format>image/svg+xml</dc:format>
        <dc:type
           rdf:resource="http://purl.org/dc/dcmitype/StillImage" />
        <dc:title></dc:title>
      </cc:Work>
    </rdf:RDF>
  </metadata>
  <g
     inkscape:label="Calque 1"
     inkscape:groupmode="layer"
     id="layer1"
     transform="translate(-172.01794,-95.38708)">
    <g
       transform="matrix(1.25,0,0,-1.25,-19.667684,588.35183)"
       id="g54">
      <g
         id="g56"
         clip-path="url(#clipPath58)">
        <g
           id="g62"
           transform="translate(251.4365,338.1738)">
          <path
             d="m 0,0 c -4.004,0 -10.135,2.044 -10.135,10.392 l 0,11.492 c 0.087,2.81 0.171,6.469 2.301,9.109 1.87,2.383 5.45,3.831 8.679,3.831 9.453,0 10.819,-10.13 10.819,-17.54 C 11.664,12.858 11.575,0 0,0 m 0.9,39.591 c -21.193,0 -18.103,-18.452 -18.103,-26.212 l 0,-26.503 -20.861,32.707 12.606,19.072 -6.73,0 -8.939,-14.557 -20.944,32.1 -36.017,0 0,-60.114 35.591,0 0,5.789 -27.333,0 0,22.564 22.904,0 0,5.789 -22.904,0 0,20.18 22.861,0 21.329,-32.612 -14.643,-21.71 7.068,0 10.811,17.115 27.107,-42.604 5.249,0 0,30.003 c 1.7,-2.039 4.597,-5.367 11.493,-5.367 14.897,0 17.882,12.689 17.882,22.905 0,3.918 1.228,21.455 -18.427,21.455"
             style="fill:#154281;fill-opacity:1;fill-rule:nonzero;stroke:none"
             id="path64"
             inkscape:connector-curvature="0" />
        </g>
        <g
           id="g66"
           transform="translate(321.6631,334.2578)">
          <path
             d="m 0,0 -7.322,0 0,42.661 7.322,0 0,-5.623 c 1.533,1.959 4.682,6.301 10.387,6.301 2.64,0 3.916,-0.85 5.107,-1.534 l 0,-6.726 c -1.445,1.022 -3.576,2.47 -6.98,2.47 -0.938,0 -2.555,-0.083 -4.172,-0.854 C 0.084,34.736 0.084,30.909 0,28.61 L 0,0 Z"
             style="fill:#154281;fill-opacity:1;fill-rule:nonzero;stroke:none"
             id="path68"
             inkscape:connector-curvature="0" />
        </g>
        <path
           d="m 369.124,334.258 -7.32,0 0,42.571 7.32,0 0,-42.571 z m -0.084,45.528 -7.236,0 0,7.406 7.236,0 0,-7.406 z"
           style="fill:#154281;fill-opacity:1;fill-rule:nonzero;stroke:none"
           id="path70"
           inkscape:connector-curvature="0" />
        <g
           id="g72"
           transform="translate(433.8145,334.2578)">
          <path
             d="m 0,0 -7.321,0 0,27.669 c -0.086,3.068 -0.174,5.792 -1.282,7.836 -1.276,2.13 -3.486,3.235 -5.871,3.235 -1.622,0 -3.155,-0.427 -4.519,-1.105 -4.678,-2.3 -4.768,-6.132 -4.932,-8.941 l 0,-28.694 -7.325,0 0,27.927 c 0,1.448 0.088,2.898 -0.174,4.342 -0.507,2.982 -2.464,6.471 -7.15,6.471 -3.746,0 -7.068,-2.298 -8.341,-5.023 -0.939,-1.958 -0.939,-4.684 -0.939,-7.321 l 0,-26.396 -7.323,0 0,42.571 7.323,0 0,-4.853 c 2.295,2.132 6.217,5.789 12.692,5.789 5.02,0 8.852,-2.213 10.472,-6.638 3.828,4.171 8.34,6.638 13.361,6.638 1.789,0 3.578,-0.252 5.197,-1.018 C -0.345,39.85 -0.089,34.142 0,30.397 L 0,0 Z"
             style="fill:#154281;fill-opacity:1;fill-rule:nonzero;stroke:none"
             id="path74"
             inkscape:connector-curvature="0" />
        </g>
        <g
           id="g76"
           transform="translate(294.4106,372.998)">
          <path
             d="m 0,0 c 9.368,0 9.621,-10.214 9.706,-12.856 l -20.86,0 C -10.644,-4.339 -6.13,0 0,0 m -11.395,-17.283 28.337,0 c 0.427,12.854 -3.744,22.05 -17.114,22.05 -13.281,0 -18.984,-9.366 -18.984,-23.414 0,-14.847 6.282,-19.71 7.761,-20.537 l 0,21.901 z"
             style="fill:#154281;fill-opacity:1;fill-rule:nonzero;stroke:none"
             id="path78"
             inkscape:connector-curvature="0" />
        </g>
        <g
           id="g80"
           transform="translate(347.7354,372.4014)">
          <path
             d="m 0,0 8.002,0 0,4.428 -8.002,0 0,10.492 -7.563,0 -0.003,-40.375 c -0.082,-4.004 -0.014,-7.407 1.349,-9.621 0.44,-0.656 1.918,-2.981 6.162,-3.642 L 0,0 Z"
             style="fill:#154281;fill-opacity:1;fill-rule:nonzero;stroke:none"
             id="path82"
             inkscape:connector-curvature="0" />
        </g>
        <path
           d="m 304.778,334.258 -14.54,0 0,14.536 14.54,0 0,-14.536 z"
           style="fill:#00aacc;fill-opacity:1;fill-rule:nonzero;stroke:none"
           id="path84"
           inkscape:connector-curvature="0" />
        <g
           id="g86"
           transform="translate(460.0049,372.998)">
          <path
             d="m 0,0 c 9.368,0 9.619,-10.214 9.707,-12.856 l -20.859,0 C -10.644,-4.339 -6.128,0 0,0 m -11.395,-17.283 28.338,0 c 0.425,12.854 -3.746,22.05 -17.115,22.05 -13.28,0 -18.981,-9.366 -18.981,-23.414 0,-14.847 6.279,-19.71 7.758,-20.537 l 0,21.901 z"
             style="fill:#154281;fill-opacity:1;fill-rule:nonzero;stroke:none"
             id="path88"
             inkscape:connector-curvature="0" />
        </g>
        <path
           d="m 470.372,334.258 -14.537,0 0,14.536 14.537,0 0,-14.536 z"
           style="fill:#00aacc;fill-opacity:1;fill-rule:nonzero;stroke:none"
           id="path90"
           inkscape:connector-curvature="0" />
        <g
           id="g92"
           transform="translate(267.9961,309.3291)">
          <path
             d="m 0,0 c -0.954,-0.438 -1.994,-0.818 -3.123,-1.143 -1.129,-0.324 -2.221,-0.486 -3.275,-0.486 -1.36,0 -2.606,0.188 -3.739,0.563 -1.133,0.375 -2.097,0.937 -2.894,1.687 -0.805,0.758 -1.426,1.705 -1.864,2.842 -0.437,1.137 -0.656,2.467 -0.656,3.99 0,2.789 0.815,4.99 2.444,6.604 1.628,1.613 3.865,2.42 6.709,2.42 0.992,0 2.005,-0.12 3.041,-0.358 1.035,-0.238 2.15,-0.642 3.345,-1.213 l 0,-2.754 -0.211,0 c -0.242,0.188 -0.593,0.434 -1.054,0.739 -0.462,0.304 -0.914,0.558 -1.36,0.761 -0.539,0.243 -1.15,0.444 -1.834,0.604 -0.683,0.16 -1.459,0.24 -2.326,0.24 -1.953,0 -3.498,-0.627 -4.635,-1.881 -1.136,-1.254 -1.705,-2.951 -1.705,-5.092 0,-2.257 0.594,-4.013 1.782,-5.267 1.187,-1.254 2.804,-1.881 4.851,-1.881 0.75,0 1.498,0.074 2.244,0.223 0.746,0.148 1.401,0.34 1.963,0.574 l 0,4.277 -4.676,0 0,2.039 L 0,7.488 0,0 Z"
             style="fill:#00aacc;fill-opacity:1;fill-rule:nonzero;stroke:none"
             id="path94"
             inkscape:connector-curvature="0" />
        </g>
        <g
           id="g96"
           transform="translate(281.9629,318.7275)">
          <path
             d="m 0,0 -0.117,0 c -0.328,0.078 -0.647,0.135 -0.955,0.17 -0.309,0.035 -0.674,0.053 -1.096,0.053 -0.68,0 -1.336,-0.151 -1.969,-0.452 -0.633,-0.3 -1.242,-0.689 -1.828,-1.166 l 0,-9.293 -2.203,0 0,13.09 2.203,0 0,-1.933 c 0.875,0.703 1.647,1.201 2.315,1.494 0.668,0.293 1.349,0.439 2.045,0.439 0.382,0 0.66,-0.009 0.832,-0.029 C -0.602,2.354 -0.344,2.316 0,2.262 L 0,0 Z"
             style="fill:#00aacc;fill-opacity:1;fill-rule:nonzero;stroke:none"
             id="path98"
             inkscape:connector-curvature="0" />
        </g>
        <g
           id="g100"
           transform="translate(294.8398,314.5791)">
          <path
             d="M 0,0 C 0,1.695 -0.332,2.955 -0.996,3.779 -1.66,4.604 -2.582,5.016 -3.762,5.016 -4.957,5.016 -5.885,4.604 -6.545,3.779 -7.205,2.955 -7.535,1.695 -7.535,0 c 0,-1.641 0.332,-2.885 0.996,-3.732 0.664,-0.848 1.59,-1.272 2.777,-1.272 1.172,0 2.092,0.42 2.76,1.26 C -0.334,-2.904 0,-1.656 0,0 m 2.273,0 c 0,-2.133 -0.546,-3.816 -1.64,-5.051 -1.094,-1.234 -2.559,-1.851 -4.395,-1.851 -1.851,0 -3.322,0.617 -4.412,1.851 -1.09,1.235 -1.635,2.918 -1.635,5.051 0,2.133 0.545,3.818 1.635,5.057 1.09,1.238 2.561,1.857 4.412,1.857 1.836,0 3.301,-0.619 4.395,-1.857 C 1.727,3.818 2.273,2.133 2.273,0"
             style="fill:#00aacc;fill-opacity:1;fill-rule:nonzero;stroke:none"
             id="path102"
             inkscape:connector-curvature="0" />
        </g>
        <g
           id="g104"
           transform="translate(313.2939,308.04)">
          <path
             d="m 0,0 -2.203,0 0,1.453 C -2.945,0.867 -3.656,0.418 -4.336,0.105 c -0.68,-0.312 -1.43,-0.468 -2.25,-0.468 -1.375,0 -2.445,0.42 -3.211,1.259 -0.766,0.84 -1.148,2.073 -1.148,3.698 l 0,8.496 2.203,0 0,-7.453 c 0,-0.664 0.031,-1.233 0.094,-1.705 0.062,-0.473 0.195,-0.877 0.398,-1.213 0.211,-0.344 0.484,-0.594 0.82,-0.75 0.336,-0.156 0.825,-0.235 1.465,-0.235 0.57,0 1.194,0.149 1.869,0.446 0.676,0.297 1.307,0.675 1.893,1.136 l 0,9.774 L 0,13.09 0,0 Z"
             style="fill:#00aacc;fill-opacity:1;fill-rule:nonzero;stroke:none"
             id="path106"
             inkscape:connector-curvature="0" />
        </g>
        <g
           id="g108"
           transform="translate(328.7959,314.6846)">
          <path
             d="m 0,0 c 0,1.578 -0.27,2.758 -0.809,3.539 -0.539,0.781 -1.367,1.172 -2.484,1.172 -0.633,0 -1.27,-0.137 -1.91,-0.41 -0.641,-0.274 -1.254,-0.633 -1.84,-1.078 l 0,-7.418 c 0.625,-0.282 1.162,-0.473 1.611,-0.575 0.45,-0.101 0.959,-0.152 1.53,-0.152 1.226,0 2.183,0.414 2.871,1.242 C -0.344,-2.852 0,-1.625 0,0 m 2.273,0.059 c 0,-1.063 -0.152,-2.034 -0.457,-2.913 -0.304,-0.878 -0.734,-1.623 -1.289,-2.232 -0.515,-0.578 -1.123,-1.025 -1.822,-1.342 -0.699,-0.316 -1.439,-0.474 -2.221,-0.474 -0.679,0 -1.295,0.074 -1.845,0.222 -0.551,0.149 -1.112,0.379 -1.682,0.692 l 0,-5.485 -2.203,0 0,17.918 2.203,0 0,-1.371 c 0.586,0.492 1.244,0.905 1.975,1.237 0.73,0.332 1.509,0.498 2.338,0.498 1.578,0 2.806,-0.596 3.685,-1.788 C 1.834,3.83 2.273,2.176 2.273,0.059"
             style="fill:#00aacc;fill-opacity:1;fill-rule:nonzero;stroke:none"
             id="path110"
             inkscape:connector-curvature="0" />
        </g>
        <g
           id="g112"
           transform="translate(345.2354,316.0439)">
          <path
             d="M 0,0 C -0.008,1.156 -0.299,2.051 -0.873,2.684 -1.447,3.316 -2.32,3.633 -3.492,3.633 -4.672,3.633 -5.611,3.285 -6.311,2.59 -7.01,1.895 -7.406,1.031 -7.5,0 L 0,0 Z m 2.145,-1.688 -9.645,0 c 0,-0.804 0.121,-1.505 0.363,-2.103 0.242,-0.598 0.574,-1.088 0.996,-1.471 0.407,-0.375 0.889,-0.656 1.448,-0.843 0.558,-0.188 1.173,-0.282 1.845,-0.282 0.891,0 1.787,0.178 2.69,0.533 0.902,0.356 1.545,0.706 1.928,1.049 l 0.117,0 0,-2.402 c -0.742,-0.313 -1.5,-0.574 -2.274,-0.785 -0.773,-0.211 -1.586,-0.317 -2.437,-0.317 -2.172,0 -3.867,0.588 -5.086,1.764 -1.219,1.176 -1.828,2.846 -1.828,5.01 0,2.14 0.584,3.84 1.752,5.098 1.168,1.257 2.705,1.886 4.611,1.886 1.766,0 3.127,-0.515 4.084,-1.547 0.957,-1.031 1.436,-2.496 1.436,-4.394 l 0,-1.196 z"
             style="fill:#00aacc;fill-opacity:1;fill-rule:nonzero;stroke:none"
             id="path114"
             inkscape:connector-curvature="0" />
        </g>
      </g>
    </g>
  </g>
</svg>
